<?xml version="1.0" encoding="utf-8"?>
<!-- Generator: Adobe Illustrator 23.0.0, SVG Export Plug-In . SVG Version: 6.00 Build 0)  -->
<svg version="1.1" id="Слой_1" xmlns="http://www.w3.org/2000/svg" xmlns:xlink="http://www.w3.org/1999/xlink" x="0px" y="0px"
	 viewBox="0 0 28.2 23.5" style="enable-background:new 0 0 28.2 23.5;" xml:space="preserve">
<g>
	<g id="Oval-2">
		<circle cx="15.5" cy="21.5" r="2"/>
	</g>
	<g id="Oval_Copy">
		<circle cx="23.5" cy="21.5" r="2"/>
	</g>
	<g id="Path_2">
		<path d="M26.7,17.3H16c-2.7,0-5.1-1.6-6.1-4.1l-3.1-8C6.3,3.9,5,3,3.5,3h-2C0.7,3,0,2.3,0,1.5S0.7,0,1.5,0h2
			c2.7,0,5.1,1.6,6.1,4.1l3.1,8c0.5,1.4,1.8,2.2,3.3,2.2h10.8c0.8,0,1.5,0.7,1.5,1.5S27.6,17.3,26.7,17.3z"/>
	</g>
</g>
</svg>
