<?xml version="1.0" encoding="utf-8"?>
<!-- Generator: Adobe Illustrator 23.0.0, SVG Export Plug-In . SVG Version: 6.00 Build 0)  -->
<svg version="1.1" id="Слой_1" xmlns="http://www.w3.org/2000/svg" xmlns:xlink="http://www.w3.org/1999/xlink" x="0px" y="0px"
	 viewBox="0 0 31.2 27" style="enable-background:new 0 0 31.2 27;" xml:space="preserve">
<g>
	<g id="Oval">
		<path d="M7,27c-1.7,0-3-1.3-3-3s1.3-3,3-3s3,1.3,3,3S8.7,27,7,27z M7,23c-0.6,0-1,0.4-1,1s0.4,1,1,1s1-0.4,1-1S7.6,23,7,23z"/>
	</g>
	<g id="Oval_Copy">
		<path d="M17,27c-1.7,0-3-1.3-3-3s1.3-3,3-3s3,1.3,3,3S18.7,27,17,27z M17,23c-0.6,0-1,0.4-1,1s0.4,1,1,1c0.6,0,1-0.4,1-1
			S17.6,23,17,23z"/>
	</g>
	<g id="Path_2">
		<path d="M15.5,20.3H5c-0.6,0-1-0.4-1-1s0.4-1,1-1h10.5c1.8,0,3.3-1.1,3.8-2.8l3.4-11.3C23.5,1.7,25.8,0,28.5,0h1.7
			c0.6,0,1,0.4,1,1s-0.4,1-1,1h-1.7c-1.8,0-3.3,1.1-3.8,2.8l-3.4,11.3C20.5,18.6,18.1,20.3,15.5,20.3z"/>
	</g>
	<g id="Path_3">
		<path d="M7.5,15.7c-2.7,0-5.1-1.8-5.8-4.4L0,5.3C-0.1,4.7,0.2,4.2,0.7,4C1.3,3.9,1.8,4.2,2,4.7l1.7,6.1c0.5,1.7,2.1,2.9,3.9,2.9
			c0,0,0,0,0,0h12.4c0.6,0,1,0.4,1,1s-0.4,1-1,1H7.5C7.5,15.7,7.5,15.7,7.5,15.7z"/>
	</g>
	<g id="Path_5">
		<path d="M11.6,11c-0.7,0-1.3-0.2-1.9-0.7L7.4,8.5c-0.4-0.3-0.5-1-0.2-1.4c0.3-0.4,1-0.5,1.4-0.2L11,8.8c0.4,0.3,1.1,0.3,1.4-0.2
			c0,0,0-0.1,0.1-0.1l4.4-7.1c0.3-0.5,0.9-0.6,1.4-0.3c0.5,0.3,0.6,0.9,0.3,1.4l-4.4,7.1c-0.1,0.1-0.1,0.2-0.2,0.3
			C13.4,10.7,12.5,11,11.6,11z"/>
	</g>
</g>
</svg>
