<?xml version="1.0" encoding="utf-8"?>
<!-- Generator: Adobe Illustrator 23.0.0, SVG Export Plug-In . SVG Version: 6.00 Build 0)  -->
<svg version="1.1" id="Слой_1" xmlns="http://www.w3.org/2000/svg" xmlns:xlink="http://www.w3.org/1999/xlink" x="0px" y="0px"
	 viewBox="0 0 31.4 26.9" style="enable-background:new 0 0 31.4 26.9;" xml:space="preserve">
<g id="Basket_icon" transform="translate(0.354 0.909)">
	<g id="Oval">
		<path d="M7,26c-1.7,0-3-1.3-3-3s1.3-3,3-3s3,1.3,3,3S8.7,26,7,26z M7,22c-0.6,0-1,0.4-1,1s0.4,1,1,1s1-0.4,1-1S7.6,22,7,22z"/>
	</g>
	<g id="Oval_Copy">
		<path d="M17,26c-1.7,0-3-1.3-3-3s1.3-3,3-3c1.7,0,3,1.3,3,3S18.7,26,17,26z M17,22c-0.6,0-1,0.4-1,1s0.4,1,1,1c0.6,0,1-0.4,1-1
			S17.6,22,17,22z"/>
	</g>
	<g id="Path_2">
		<path d="M15.3,19.5H4.8c-0.6,0-1-0.4-1-1s0.4-1,1-1h10.5c1.8,0,3.3-1.1,3.8-2.8l3.4-11.3c0.8-2.5,3.1-4.2,5.7-4.2H30
			c0.6,0,1,0.4,1,1s-0.4,1-1,1h-1.7c-1.8,0-3.3,1.1-3.8,2.8L21,15.2C20.3,17.8,18,19.5,15.3,19.5z"/>
	</g>
	<g id="Path_3">
		<path d="M7.2,14.9c-2.7,0-5.1-1.8-5.8-4.4l-1.7-6.1c-0.1-0.5,0.2-1.1,0.7-1.2C0.9,3,1.5,3.3,1.6,3.9L3.3,10
			c0.5,1.7,2.1,2.9,3.9,2.9c0,0,0,0,0,0h12.4c0.6,0,1,0.4,1,1s-0.4,1-1,1H7.2C7.2,14.9,7.2,14.9,7.2,14.9z"/>
	</g>
	<g id="Path_4">
		<path d="M16.1,5.2H7.8c-0.6,0-1-0.4-1-1s0.4-1,1-1h8.3c0.6,0,1,0.4,1,1S16.7,5.2,16.1,5.2z"/>
	</g>
	<g id="Path_4_Copy">
		<path d="M12,9.4c-0.6,0-1-0.4-1-1V0.1c0-0.6,0.4-1,1-1s1,0.4,1,1v8.3C13,8.9,12.5,9.4,12,9.4z"/>
	</g>
</g>
</svg>
