<?xml version="1.0" encoding="utf-8"?>
<!-- Generator: Adobe Illustrator 23.0.0, SVG Export Plug-In . SVG Version: 6.00 Build 0)  -->
<svg version="1.1" id="Слой_1" xmlns="http://www.w3.org/2000/svg" xmlns:xlink="http://www.w3.org/1999/xlink" x="0px" y="0px"
	 viewBox="0 0 15.7 27.2" style="enable-background:new 0 0 15.7 27.2;" xml:space="preserve">
<g>
	<g id="Group_3">
		<path id="Fill_1" d="M5.8,27.2H4.4v-6.5C0.5,18.7-1.1,14,0.8,10.1c0.8-1.6,2-2.8,3.6-3.6V0h1.5v6c1.3-0.3,2.6-0.3,3.9,0V0h1.5v6.6
			c3.9,1.9,5.5,6.6,3.6,10.4c-0.8,1.6-2,2.8-3.6,3.6v6.6H9.8v-6c-1.3,0.3-2.6,0.3-3.9,0L5.8,27.2L5.8,27.2z M7.8,7.2
			c-3.5,0-6.4,2.9-6.4,6.4S4.3,20,7.8,20c3.5,0,6.4-2.8,6.4-6.3v0C14.2,10.1,11.4,7.2,7.8,7.2z M11.9,14.2H8.1l-0.5-0.5V9.5h1v3.7
			h3.3L11.9,14.2L11.9,14.2z"/>
	</g>
</g>
</svg>
