<?xml version="1.0" encoding="utf-8"?>
<!-- Generator: Adobe Illustrator 23.0.0, SVG Export Plug-In . SVG Version: 6.00 Build 0)  -->
<svg version="1.1" id="Слой_1" xmlns="http://www.w3.org/2000/svg" xmlns:xlink="http://www.w3.org/1999/xlink" x="0px" y="0px"
	 viewBox="0 0 25 23.9" style="enable-background:new 0 0 25 23.9;" xml:space="preserve">
<g>
	<path id="Fill_1" d="M15,23.9L15,23.9c-0.6,0-1.2-0.1-1.7-0.4c-0.8-0.3-1.5-1-1.8-1.8c-0.2-0.7-0.2-1.5,0.2-2.2
		c0.9-1.8,2.1-5.1,1.4-6.4c-0.1-0.2-0.3-0.4-0.5-0.5c-2.6-0.3-5.5-0.7-8-1c-2.3-0.3-3.9-0.6-3.9-0.6L0,10.4V2.8l0.6-0.7
		C1.2,2,14.3,0.3,17.8,0c0.2,0,0.3,0,0.5,0c1.7,0,3.3,0.6,4.5,1.8C24.2,3,25,4.8,25,6.6c-0.1,1.6-0.7,3.1-1.7,4.3
		c-0.2,0.4-0.4,0.7-0.6,1.1c-0.2,0.3-0.3,0.6-0.5,0.9c-0.9,1.5-1.7,3-2.5,4.5c-0.3,0.7-0.6,1.5-0.8,2.1l0,0.1
		c-0.7,1.7-1.3,3.4-2.6,4C15.8,23.8,15.4,23.9,15,23.9z M14.5,13c0.5,1.6,0,4.1-1.5,7.2l0,0.1l0,0c-0.2,0.3-0.2,0.6-0.1,0.9
		c0.2,0.5,0.6,0.8,1,1c0.5,0.3,1.1,0.3,1.6,0.1c0.8-0.4,1.4-1.8,1.9-3.3c0.2-0.6,0.5-1.4,0.9-2.2h0c0.7-1.4,1.4-2.8,2.2-4.1
		c-0.8,0.3-1.7,0.5-2.6,0.5h-0.1C17.1,13.2,16,13.2,14.5,13L14.5,13z M18.2,1.5c-0.1,0-0.2,0-0.3,0C16.3,1.6,12.3,2.1,6,2.9v7.5
		c2.7,0.4,4.7,0.6,6.3,0.8c0,0,4.7,0.5,5.6,0.5h0.1c1.5,0,2.9-0.6,4-1.6h0c1-0.9,1.5-2.2,1.5-3.5c0-0.1,0-0.1,0-0.2
		C23.3,3.7,21,1.5,18.2,1.5L18.2,1.5z M5,3L1.5,3.5v6.3l3.3,0.5H5L5,3z M21,6.9h-1c0.1-0.8-0.2-1.6-0.7-2.1
		c-0.7-0.5-1.6-0.8-2.5-0.8c-0.2,0-0.5,0-0.7,0.1l0-1c0.3,0,0.6-0.1,0.8-0.1C18,2.9,19.1,3.3,20,4C20.7,4.8,21.1,5.8,21,6.9L21,6.9z
		"/>
</g>
</svg>
