<?xml version="1.0" encoding="utf-8"?>
<!-- Generator: Adobe Illustrator 23.0.0, SVG Export Plug-In . SVG Version: 6.00 Build 0)  -->
<svg version="1.1" id="Слой_1" xmlns="http://www.w3.org/2000/svg" xmlns:xlink="http://www.w3.org/1999/xlink" x="0px" y="0px"
	 viewBox="0 0 19.9 17.1" style="enable-background:new 0 0 19.9 17.1;" xml:space="preserve">
<g>
	<path id="Path" d="M0.2,16.9C0.1,16.8,0,16.6,0,16.4v-1.7C0,14.3,0.3,14,0.6,14c0,0,0,0,0.1,0h2.5c0.4,0,0.7,0.3,0.7,0.6
		c0,0,0,0,0,0.1v1.7c0,0.4-0.3,0.7-0.6,0.7c0,0,0,0-0.1,0H0.7C0.5,17.1,0.3,17.1,0.2,16.9"/>
	<path id="Path_Copy" d="M8.2,16.9C8.1,16.8,8,16.6,8,16.4v-1.7C8,14.3,8.3,14,8.6,14c0,0,0,0,0.1,0h2.5c0.4,0,0.7,0.3,0.7,0.6
		c0,0,0,0,0,0.1v1.7c0,0.4-0.3,0.7-0.6,0.7c0,0,0,0-0.1,0H8.7C8.5,17.1,8.3,17.1,8.2,16.9"/>
	<path id="Path_Copy_4" d="M16.2,16.9c-0.1-0.1-0.2-0.3-0.2-0.5v-1.7c0-0.4,0.3-0.7,0.6-0.7c0,0,0,0,0.1,0h2.5
		c0.4,0,0.7,0.3,0.7,0.6c0,0,0,0,0,0.1v1.7c0,0.4-0.3,0.7-0.6,0.7c0,0,0,0-0.1,0h-2.5C16.5,17.1,16.3,17.1,16.2,16.9"/>
	<path id="Path-2" d="M0.2,9.9C0.1,9.8,0,9.6,0,9.4V7.7C0,7.3,0.3,7,0.6,7c0,0,0,0,0.1,0h2.5c0.4,0,0.7,0.3,0.7,0.6c0,0,0,0,0,0.1
		v1.7c0,0.4-0.3,0.7-0.6,0.7c0,0,0,0-0.1,0H0.7C0.5,10.1,0.3,10.1,0.2,9.9"/>
	<path id="Path_Copy_2" d="M8.2,9.9C8.1,9.8,8,9.6,8,9.4V7.7C8,7.3,8.3,7,8.6,7c0,0,0,0,0.1,0h2.5c0.4,0,0.7,0.3,0.7,0.6
		c0,0,0,0,0,0.1v1.7c0,0.4-0.3,0.7-0.6,0.7c0,0,0,0-0.1,0H8.7C8.5,10.1,8.3,10.1,8.2,9.9"/>
	<path id="Path_Copy_5" d="M16.2,9.9C16.1,9.8,16,9.6,16,9.4V7.7C16,7.3,16.3,7,16.6,7c0,0,0,0,0.1,0h2.5c0.4,0,0.7,0.3,0.7,0.6
		c0,0,0,0,0,0.1v1.7c0,0.4-0.3,0.7-0.6,0.7c0,0,0,0-0.1,0h-2.5C16.5,10.1,16.3,10.1,16.2,9.9"/>
	<path id="Path-3" d="M0.2,2.9C0.1,2.8,0,2.6,0,2.4V0.7c0-0.2,0.1-0.4,0.2-0.5C0.3,0.1,0.5,0,0.7,0h2.5c0.2,0,0.4,0.1,0.5,0.2
		c0.1,0.1,0.2,0.3,0.2,0.5v1.7c0,0.4-0.3,0.7-0.6,0.7c0,0,0,0-0.1,0H0.7C0.5,3.1,0.3,3.1,0.2,2.9"/>
	<path id="Path_Copy_3" d="M8.2,2.9C8.1,2.8,8,2.6,8,2.4V0.7c0-0.2,0.1-0.4,0.2-0.5C8.3,0.1,8.5,0,8.7,0h2.5c0.2,0,0.4,0.1,0.5,0.2
		c0.1,0.1,0.2,0.3,0.2,0.5v1.7c0,0.4-0.3,0.7-0.6,0.7c0,0,0,0-0.1,0H8.7C8.5,3.1,8.3,3.1,8.2,2.9"/>
	<path id="Path_Copy_6" d="M16.2,2.9C16.1,2.8,16,2.6,16,2.4V0.7c0-0.2,0.1-0.4,0.2-0.5C16.3,0.1,16.5,0,16.7,0h2.5
		c0.2,0,0.4,0.1,0.5,0.2c0.1,0.1,0.2,0.3,0.2,0.5v1.7c0,0.4-0.3,0.7-0.6,0.7c0,0,0,0-0.1,0h-2.5C16.5,3.1,16.3,3.1,16.2,2.9"/>
</g>
</svg>
