<?xml version="1.0" encoding="utf-8"?>
<!-- Generator: Adobe Illustrator 23.0.0, SVG Export Plug-In . SVG Version: 6.00 Build 0)  -->
<svg version="1.1" id="Слой_1" xmlns="http://www.w3.org/2000/svg" xmlns:xlink="http://www.w3.org/1999/xlink" x="0px" y="0px"
	 viewBox="0 0 24 21" style="enable-background:new 0 0 24 21;" xml:space="preserve">
<g id="Add_to_favor" transform="translate(1 1)">
	<g id="Fill_1">
		<path d="M11,20c-0.6,0-1.2-0.2-1.6-0.7l-0.1-0.1L1,10.8C0.1,9.9-0.5,8.8-0.8,7.5C-1.1,6.2-1,4.9-0.7,3.7c0.4-1.2,1.1-2.4,2.2-3.2
			c0.9-0.7,1.9-1.2,3.1-1.4C5.7-1.1,6.9-1,8-0.6c1.1,0.4,2.1,1,2.9,1.8L11,1.3l0.2-0.2c0.8-0.8,1.8-1.4,2.9-1.8
			c1.1-0.4,2.2-0.4,3.4-0.2c1.1,0.2,2.2,0.7,3.1,1.4l0,0c1,0.8,1.8,1.9,2.2,3.2c0.4,1.2,0.5,2.5,0.2,3.8c-0.3,1.3-0.9,2.4-1.8,3.3
			l-8.3,8.5C12.2,19.8,11.6,20,11,20z M5.8,1C5.5,1,5.2,1,4.9,1.1c-0.8,0.1-1.5,0.5-2.1,1C2.1,2.7,1.5,3.5,1.3,4.3
			C1,5.2,0.9,6.2,1.1,7.1C1.3,8,1.8,8.8,2.4,9.4l8.3,8.4c0.2,0.2,0.4,0.2,0.5,0l8.3-8.5c0.7-0.6,1.1-1.5,1.3-2.3
			c0.2-0.9,0.2-1.8-0.1-2.7c-0.3-0.9-0.8-1.7-1.5-2.2l0.7-0.8l-0.7,0.8c-0.6-0.5-1.4-0.9-2.1-1c-0.8-0.1-1.6-0.1-2.4,0.2
			c-0.8,0.3-1.5,0.7-2.1,1.3L11,4.1L9.4,2.6C8.8,2,8.1,1.5,7.3,1.3C6.8,1.1,6.3,1,5.8,1z"/>
	</g>
</g>
</svg>
