<?xml version="1.0" encoding="utf-8"?>
<!-- Generator: Adobe Illustrator 23.0.0, SVG Export Plug-In . SVG Version: 6.00 Build 0)  -->
<svg version="1.1" id="Слой_1" xmlns="http://www.w3.org/2000/svg" xmlns:xlink="http://www.w3.org/1999/xlink" x="0px" y="0px"
	 viewBox="0 0 25 22" style="enable-background:new 0 0 25 22;" xml:space="preserve">
<g id="Fill_1">
	<path d="M12.5,22c-0.7,0-1.4-0.3-2-0.8l-0.1-0.1l-8.3-8.4c-1-1-1.7-2.2-2-3.6c-0.3-1.3-0.2-2.7,0.2-4c0.4-1.3,1.2-2.5,2.3-3.4
		C3.6,0.9,4.8,0.3,6,0.1C7.2-0.1,8.5,0,9.6,0.4c1.1,0.4,2.1,0.9,2.9,1.7c0.8-0.8,1.8-1.4,2.9-1.7C16.5,0,17.8-0.1,19,0.1
		c1.2,0.2,2.4,0.7,3.3,1.5v0c1.1,0.9,1.9,2.1,2.3,3.4c0.4,1.3,0.5,2.7,0.2,4c-0.3,1.4-1,2.6-2,3.6l-8.3,8.5C14,21.7,13.3,22,12.5,22
		z M12.4,19C12.4,19,12.4,19,12.4,19L12.4,19z M7.3,3C7,3,6.8,3,6.5,3.1C5.8,3.2,5.2,3.5,4.6,4C4,4.5,3.5,5.2,3.2,6
		C3,6.8,2.9,7.6,3.1,8.4c0.2,0.8,0.6,1.6,1.2,2.1l8.2,8.4l8.2-8.4c0.6-0.6,1-1.3,1.2-2.1C22.1,7.6,22,6.8,21.8,6
		c-0.3-0.8-0.7-1.5-1.4-2l1-1.2l-1,1.2c-0.5-0.5-1.2-0.8-1.9-0.9C17.8,2.9,17,3,16.3,3.2c-0.7,0.2-1.4,0.6-1.9,1.2l-1.9,1.9
		l-1.9-1.9c-0.5-0.6-1.2-1-1.9-1.2C8.2,3.1,7.8,3,7.3,3z"/>
</g>
</svg>
