<?xml version="1.0" encoding="utf-8"?>
<!-- Generator: Adobe Illustrator 23.0.0, SVG Export Plug-In . SVG Version: 6.00 Build 0)  -->
<svg version="1.1" id="Слой_1" xmlns="http://www.w3.org/2000/svg" xmlns:xlink="http://www.w3.org/1999/xlink" x="0px" y="0px"
	 viewBox="0 0 19.5 17.1" style="enable-background:new 0 0 19.5 17.1;" xml:space="preserve">
<path id="Fill_1" d="M18.8,17.1H0.7c-0.4,0-0.7-0.3-0.7-0.6c0,0,0,0,0-0.1v-1.7c0-0.2,0.1-0.4,0.2-0.5c0.1-0.1,0.3-0.2,0.5-0.2h18.1
	c0.4,0,0.7,0.3,0.7,0.6c0,0,0,0,0,0.1v1.7C19.5,16.8,19.3,17.1,18.8,17.1C18.9,17.1,18.8,17.1,18.8,17.1L18.8,17.1z M18.8,10.1H0.7
	c-0.2,0-0.4-0.1-0.5-0.2C0.1,9.8,0,9.6,0,9.4V7.7C0,7.3,0.3,7,0.6,7c0,0,0,0,0.1,0h18.1c0.4,0,0.7,0.3,0.7,0.6c0,0,0,0,0,0.1v1.7
	C19.5,9.8,19.3,10.1,18.8,10.1C18.9,10.1,18.8,10.1,18.8,10.1L18.8,10.1z M18.8,3.1H0.7c-0.2,0-0.4-0.1-0.5-0.2C0.1,2.8,0,2.6,0,2.4
	V0.7c0-0.2,0.1-0.4,0.2-0.5C0.3,0.1,0.5,0,0.7,0h18.1c0.2,0,0.4,0.1,0.5,0.2c0.1,0.1,0.2,0.3,0.2,0.5v1.7
	C19.5,2.8,19.3,3.1,18.8,3.1C18.9,3.1,18.8,3.1,18.8,3.1L18.8,3.1z"/>
</svg>
