<?xml version="1.0" encoding="utf-8"?>
<!-- Generator: Adobe Illustrator 23.0.0, SVG Export Plug-In . SVG Version: 6.00 Build 0)  -->
<svg version="1.1" id="Слой_1" xmlns="http://www.w3.org/2000/svg" xmlns:xlink="http://www.w3.org/1999/xlink" x="0px" y="0px"
	 viewBox="0 0 9.3 9.8" style="enable-background:new 0 0 9.3 9.8;" xml:space="preserve">
<path id="Fill_1_Copy_2" d="M8.1,3.3C7.5,2.4,6.5,1.8,5.4,1.7V0L3.9,0.3v1.4C2.8,1.8,1.9,2.4,1.2,3.3C0.3,4.7-0.1,6.4,0,8
	c0,0.6,0,1.2,0.1,1.7l2.3-0.4C2.3,8.9,2.3,8.5,2.3,8.1C2.2,6.9,2.4,5.6,2.9,4.5c0.2-0.5,0.6-0.8,1-1.1v4.7l1.5-0.3V3.5
	c1.1,0.4,1.6,2,1.6,4.6c0,0.4,0,0.9-0.1,1.3l2.3,0.4c0.1-0.6,0.1-1.1,0.1-1.7C9.4,6.4,9,4.7,8.1,3.3"/>
</svg>
