<?xml version="1.0" encoding="utf-8"?>
<!-- Generator: Adobe Illustrator 23.0.0, SVG Export Plug-In . SVG Version: 6.00 Build 0)  -->
<svg version="1.1" id="Слой_1" xmlns="http://www.w3.org/2000/svg" xmlns:xlink="http://www.w3.org/1999/xlink" x="0px" y="0px"
	 viewBox="0 0 26 22" style="enable-background:new 0 0 26 22;" xml:space="preserve">
<style type="text/css">
	.st0{fill:#010202;}
</style>
<path id="Fill_1-3" class="st0" d="M19.1,22H6.9c-2.2,0-4-1.8-4-4v-7H0V9.5h2.9V7.6L3,7.2c1.2-2,3.8-3.4,7-4c0-1.7,1.3-3.1,3-3.2
	c1.7,0,3.1,1.5,3,3.2c3.2,0.6,5.7,2.1,7,4l0.1,0.4v1.9H26v1.5h-2.9v7c0,1-0.4,2-1.2,2.8C21.2,21.6,20.2,22,19.1,22z M4.4,8.7V18
	c0,1.4,1.1,2.5,2.5,2.5h12.3c1.4,0,2.5-1.1,2.5-2.5l0-9.3H4.4z M13,4.4c-1.7,0-3.4,0.3-5.1,0.9C6.6,5.8,5.4,6.6,4.5,7.7h17
	C20,5.7,16.7,4.4,13,4.4L13,4.4L13,4.4L13,4.4z M13,2.9c0.2,0,0.5,0,0.7,0h0c0.2,0,0.5,0,0.7,0h0c-0.1-0.8-0.7-1.4-1.5-1.5l0,0
	c-0.8,0-1.4,0.6-1.5,1.4C12,2.9,12.5,2.9,13,2.9z M15.5,18.7L15.5,18.7L14.8,18l4.3-4.3l0.7,0.7L15.5,18.7L15.5,18.7z M12.2,18
	L12.2,18l-0.7-0.7l6.5-6.5l0.7,0.7L12.2,18L12.2,18z"/>
</svg>
