<?xml version="1.0" encoding="utf-8"?>
<!-- Generator: Adobe Illustrator 23.0.0, SVG Export Plug-In . SVG Version: 6.00 Build 0)  -->
<svg version="1.1" id="Group_7" xmlns="http://www.w3.org/2000/svg" xmlns:xlink="http://www.w3.org/1999/xlink" x="0px" y="0px"
	 viewBox="0 0 26 26" style="enable-background:new 0 0 26 26;" xml:space="preserve">
<g>
	<path id="Fill_1" d="M17,26h-0.4c-0.6-0.2-1.2-0.5-1.7-0.7s-1.2-0.5-1.8-0.8c-0.6,0.3-1.1,0.5-1.7,0.7s-1.1,0.5-1.7,0.7
		C9.5,26,9.2,26,9,26c-0.5,0-1-0.3-1.2-0.8c-0.3-0.6-0.6-1.1-0.9-1.7s-0.5-1.1-0.8-1.6c-1.3-0.4-2.5-0.8-3.6-1.2l-0.1,0
		c-0.8-0.3-1.2-1.1-0.9-1.9c0.2-1.2,0.5-2.4,0.8-3.6l-2.1-3.3c-0.4-0.6-0.2-1.3,0.3-1.7C1,9.8,1.5,9.4,2.1,9s1-0.8,1.5-1.2
		C3.8,6.6,3.9,5.4,4,4.1c0-0.7,0.6-1.2,1.3-1.2c0.1,0,0.1,0,0.2,0h0.1c0.6,0,1.3,0,1.9,0s1.2,0,1.9,0c0.4-0.5,0.9-0.9,1.3-1.3
		s0.9-0.9,1.3-1.3C12.3,0.1,12.7,0,13,0c0.4,0,0.8,0.2,1.2,0.4l0,0c0.9,0.9,1.8,1.7,2.7,2.5h0c0.6,0,1.3,0,1.9,0s1.2,0,1.9,0
		C21.3,2.9,21.9,3.4,22,4c0.1,0.6,0.2,1.2,0.3,1.8s0.2,1.3,0.3,1.9C23,8.1,23.5,8.5,24,8.8s1,0.8,1.4,1.2c0.6,0.5,0.8,1.3,0.4,2
		c-0.3,0.6-0.6,1.1-0.9,1.6s-0.7,1.1-1,1.6c0.1,0.6,0.2,1.2,0.4,1.8s0.3,1.3,0.4,1.9v0.5c-0.1,0.4-0.3,0.8-0.6,1l-0.6,0.3l-3.3,1.1
		c-0.3,0.6-0.6,1.2-0.9,1.7s-0.7,1.2-1,1.8C17.9,25.7,17.5,26,17,26z M5.5,4.4L5.5,4.4l-0.1,1L5.1,8C5,8.4,4.8,8.7,4.5,9l-2.1,1.5
		L1.7,11l2,3.2C3.9,14.6,4,15,3.9,15.4l-0.5,2L3,19v0.1l1.8,0.6l1.7,0.6c0.4,0.2,0.7,0.4,0.9,0.8l1,2L9,24.4h0.1l2.3-0.9l1.2-0.5
		c0.2-0.1,0.4-0.1,0.6-0.1c0.2,0,0.4,0,0.6,0.1l2.7,1.1l0.6,0.3l1.8-3.3c0.1-0.4,0.4-0.6,0.8-0.7l3.3-1.1c0-0.1,0-0.1,0.1-0.1l0,0
		l-0.4-2.3l-0.3-1.4c-0.1-0.4,0-0.8,0.2-1.1l1.9-3.2c0,0,0-0.1,0-0.1c0,0,0,0-0.1,0L24,10.8l-2.4-1.9c-0.3-0.2-0.5-0.5-0.5-0.9
		l-0.2-1.7l-0.3-2h-1.1l-2.6,0.1h-0.1c-0.4,0-0.7-0.2-1-0.4L13,1.5l0,0c-0.9,0.9-1.7,1.7-2.7,2.6c-0.2,0.3-0.6,0.4-1,0.4H9.1
		L5.5,4.4L5.5,4.4z M11.3,19.7H11c-0.2-0.1-0.4-0.2-0.4-0.4c-0.1-0.2-0.1-0.4-0.1-0.6l4-11.3c0.2-0.4,0.6-0.6,1-0.5
		c0.2,0.1,0.4,0.2,0.4,0.4C16,7.5,16,7.7,16,7.9l-4,11.3C11.9,19.5,11.6,19.7,11.3,19.7z M17.1,19.6c-0.9,0.1-1.7-0.4-2.1-1.1
		c-0.4-0.7-0.6-1.5-0.6-2.3c-0.1-0.9,0.2-1.7,0.7-2.4c0.5-0.7,1.3-1,2.1-1c1.1,0,1.7,0.3,2,1.1c0.8,1.4,0.8,3.2,0,4.6
		C18.8,19.2,17.9,19.7,17.1,19.6z M17.2,14.4c-0.2,0-0.7,0-0.9,0.3l-0.1,0.1c-0.3,0.4-0.4,0.8-0.3,1.3c-0.1,0.6,0.1,1.1,0.4,1.6l0,0
		c0.1,0.1,0.2,0.3,0.9,0.3c0.6,0,0.8-0.2,0.9-0.3l0,0l0,0c0,0,0,0,0,0c0.2-0.4,0.4-0.9,0.4-1.4c0-0.5-0.1-1.1-0.4-1.5l0,0
		C18,14.6,17.8,14.4,17.2,14.4z M9.2,14.3L9.2,14.3c-0.9,0.1-1.7-0.4-2.1-1.1c-0.4-0.7-0.6-1.5-0.6-2.3c0-0.8,0.2-1.6,0.7-2.3
		c0.4-0.7,1.2-1.2,2.1-1.1c0.9-0.1,1.7,0.4,2.1,1.1c0.4,0.7,0.6,1.5,0.6,2.3c0,0.8-0.2,1.6-0.6,2.3C10.9,13.9,10.1,14.3,9.2,14.3z
		 M9.3,9C9,9,8.6,9.1,8.4,9.4C8.1,9.8,8,10.4,8,10.9c0,0.5,0.2,1,0.4,1.5l0,0l0,0l0,0c0.1,0.1,0.2,0.3,0.9,0.3s0.8-0.2,0.9-0.3
		c0,0,0,0,0,0c0.2-0.5,0.4-1,0.4-1.6c0-0.5-0.1-1.1-0.4-1.5C10,9,9.5,9,9.3,9L9.3,9z"/>
</g>
</svg>
