<?xml version="1.0" encoding="utf-8"?>
<!-- Generator: Adobe Illustrator 23.0.0, SVG Export Plug-In . SVG Version: 6.00 Build 0)  -->
<svg version="1.1" id="Слой_1" xmlns="http://www.w3.org/2000/svg" xmlns:xlink="http://www.w3.org/1999/xlink" x="0px" y="0px"
	 viewBox="0 0 16 26" style="enable-background:new 0 0 16 26;" xml:space="preserve">
<style type="text/css">
	.st0{fill:#010202;}
</style>
<path id="Fill_1-4" class="st0" d="M15.2,26H0.8L0,25.2V0.8L0.8,0h14.4L16,0.8v24.4L15.2,26L15.2,26z M1.6,20.1v4.3h12.8v-4.3H1.6z
	 M1.6,1.6v17.5h12.7V1.6L1.6,1.6z M8,23.2c-0.6,0-1-0.4-1-1c0-0.6,0.4-1,1-1c0,0,0,0,0.1,0c0.6,0,1,0.4,1,1
	C9.1,22.7,8.6,23.1,8,23.2C8,23.2,8,23.2,8,23.2z M4.5,10.6L4.5,10.6L3.8,9.9l6.7-6.6L11.2,4L4.5,10.6L4.5,10.6z M3.8,7.8L3.8,7.8
	L3.1,7.1L7.2,3l0.7,0.7L3.8,7.8L3.8,7.8z"/>
</svg>
