<?xml version="1.0" encoding="utf-8"?>
<!-- Generator: Adobe Illustrator 23.0.0, SVG Export Plug-In . SVG Version: 6.00 Build 0)  -->
<svg version="1.1" id="Слой_1" xmlns="http://www.w3.org/2000/svg" xmlns:xlink="http://www.w3.org/1999/xlink" x="0px" y="0px"
	 viewBox="0 0 21 27" style="enable-background:new 0 0 21 27;" xml:space="preserve">
<style type="text/css">
	.st0{fill:#010202;}
</style>
<path id="Fill_1-6" class="st0" d="M20.2,27H0.8L0,26.2V0.8L0.7,0h19.5L21,0.8v25.5L20.2,27L20.2,27z M1.5,7.1v18.4h18V7.1H1.5z
	 M1.5,1.5v4.6h18V1.5L1.5,1.5L1.5,1.5z M10.5,22.2c-3.1-0.1-5.5-2.6-5.4-5.6s2.6-5.5,5.6-5.4c3,0.1,5.4,2.5,5.4,5.5
	C16.1,19.8,13.6,22.2,10.5,22.2L10.5,22.2z M10.5,12.6c-1.1,0-2.1,0.4-2.9,1.2c-0.8,0.7-1.2,1.8-1.2,2.8c0,2.3,1.7,4.1,4,4.2
	c2.3,0,4.1-1.7,4.2-4c0-2.3-1.7-4.1-4-4.2C10.5,12.6,10.5,12.6,10.5,12.6L10.5,12.6L10.5,12.6z M13.5,17.3h-1c0-1.1-0.9-2-2-2v-1
	c0.8,0,1.6,0.3,2.2,0.9C13.2,15.7,13.5,16.4,13.5,17.3L13.5,17.3z M15.9,4.6c-0.3,0-0.5-0.2-0.5-0.5s0.2-0.5,0.5-0.5
	c0.3,0,0.5,0.2,0.5,0.5C16.4,4.3,16.2,4.6,15.9,4.6z"/>
</svg>
