<?xml version="1.0" encoding="utf-8"?>
<!-- Generator: Adobe Illustrator 23.0.0, SVG Export Plug-In . SVG Version: 6.00 Build 0)  -->
<svg version="1.1" id="credit-card" xmlns="http://www.w3.org/2000/svg" xmlns:xlink="http://www.w3.org/1999/xlink" x="0px"
	 y="0px" viewBox="0 0 72 67" style="enable-background:new 0 0 72 67;" xml:space="preserve">
<path id="Path" d="M36.5,47c-0.8,0-1.5,0.7-1.5,1.5s0.7,1.5,1.5,1.5s1.5-0.7,1.5-1.5S37.3,47,36.5,47z"/>
<path id="Shape" d="M67.8,67H13.5c-2.3,0-4.2-1.9-4.2-4.2V41.9H4.2C1.9,41.9,0,40,0,37.7V4.2C0,1.9,1.9,0,4.2,0h54.3
	c2.3,0,4.2,1.9,4.2,4.2v20.9h5.1c2.3,0,4.2,1.9,4.2,4.2v33.5C72,65.1,70.1,67,67.8,67z M13.5,27.9c-0.8,0-1.4,0.6-1.4,1.4
	c0,0,0,0,0,0v33.5c0,0.8,0.6,1.4,1.4,1.4c0,0,0,0,0,0h54.3c0.8,0,1.4-0.6,1.4-1.4c0,0,0,0,0,0V29.3c0-0.8-0.6-1.4-1.4-1.4
	c0,0,0,0,0,0L13.5,27.9z M2.8,19.5v18.1c0,0.8,0.6,1.4,1.4,1.4c0,0,0,0,0,0h5.1v-9.8c0-2.3,1.9-4.2,4.2-4.2h46.4v-5.6H2.8z
	 M2.8,11.2v5.6h57.1v-5.6L2.8,11.2z M4.2,2.8c-0.8,0-1.4,0.6-1.4,1.4c0,0,0,0,0,0v4.2h57.1V4.2c0-0.8-0.6-1.4-1.4-1.4c0,0,0,0,0,0
	L4.2,2.8z"/>
<path id="Shape-2" d="M55.8,47c-1.5,0-3.1-0.5-4.3-1.4c-1.3,0.9-2.8,1.4-4.3,1.4c-3.9,0-7.1-3.1-7.2-7c0.1-3.9,3.3-7,7.2-7
	c1.5,0,3.1,0.5,4.3,1.4c1.3-0.9,2.8-1.4,4.3-1.4c3.9,0,7.1,3.1,7.2,7C62.9,43.9,59.7,47,55.8,47z M55.8,35.8c-0.9,0-1.7,0.2-2.4,0.7
	c1.3,2.2,1.3,4.8,0,7c0.7,0.5,1.5,0.7,2.4,0.7c2.3,0,4.3-1.8,4.3-4.2C60.1,37.7,58.2,35.8,55.8,35.8z M47.2,35.8
	c-2.3,0-4.3,1.9-4.3,4.2c0,2.3,2,4.2,4.3,4.2c1.2,0,2.4-0.5,3.2-1.4c1.4-1.6,1.4-4,0-5.6C49.6,36.3,48.4,35.8,47.2,35.8z"/>
<path id="Path-2" d="M24.7,56h-5.3c-0.8,0-1.4,0.7-1.3,1.5c0,0.8,0.6,1.5,1.3,1.5h5.3c0.8,0,1.4-0.7,1.3-1.5
	C26,56.7,25.4,56,24.7,56z"/>
<path id="Path-3" d="M35.7,56h-5.3c-0.8,0-1.4,0.7-1.3,1.5c0,0.8,0.6,1.5,1.3,1.5h5.3c0.8,0,1.4-0.7,1.3-1.5
	C37,56.7,36.4,56,35.7,56z"/>
<path id="Path-4" d="M46.7,56h-5.3c-0.8,0-1.4,0.7-1.3,1.5c0,0.8,0.6,1.5,1.3,1.5h5.3c0.8,0,1.4-0.7,1.3-1.5
	C48,56.7,47.4,56,46.7,56z"/>
<path id="Path-5" d="M58.7,56h-5.3c-0.8,0-1.4,0.7-1.3,1.5c0,0.8,0.6,1.5,1.3,1.5h5.3c0.8,0,1.4-0.7,1.3-1.5
	C60,56.7,59.4,56,58.7,56z"/>
<path id="Path-6" d="M19.4,50h11.2c0.8,0,1.4-0.7,1.4-1.5c0-0.8-0.6-1.5-1.4-1.5H19.4c-0.8,0-1.4,0.7-1.4,1.5
	C18,49.3,18.6,50,19.4,50z"/>
</svg>
