<?xml version="1.0" encoding="utf-8"?>
<!-- Generator: Adobe Illustrator 23.0.0, SVG Export Plug-In . SVG Version: 6.00 Build 0)  -->
<svg version="1.1" id="Слой_1" xmlns="http://www.w3.org/2000/svg" xmlns:xlink="http://www.w3.org/1999/xlink" x="0px" y="0px"
	 viewBox="0 0 84 84" style="enable-background:new 0 0 84 84;" xml:space="preserve">
<g id="hand" transform="translate(-0.002)">
	<path id="Path" d="M38.6,56.6c0.6-0.6,0.6-1.5,0-2.1c-0.6-0.6-1.5-0.6-2.1,0c-0.6,0.6-0.6,1.5,0,2.1C37,57.1,38,57.1,38.6,56.6
		C38.6,56.6,38.6,56.6,38.6,56.6z"/>
	<path id="Shape" d="M48,36c-9.9,0-18-8.1-18-18S38.1,0,48,0s18,8.1,18,18C66,27.9,57.9,36,48,36z M48,3.3
		c-8.1,0-14.7,6.6-14.7,14.7S39.9,32.7,48,32.7c8.1,0,14.7-6.6,14.7-14.7C62.7,9.9,56.1,3.3,48,3.3z"/>
	<path id="Shape-2" d="M20.1,84c-0.4,0-0.9-0.2-1.2-0.5L0.5,65c-0.6-0.6-0.6-1.7,0-2.3l7.8-7.8c1.1-1.1,2.8-1.7,4.4-1.4
		c3.6-6.6,10.4-10.5,18.5-10.5c2.8,0,5.6,0.5,8.2,1.6h18.3c2,0,3.9,0.9,5.1,2.4l9.7-9.9c2.4-2.7,6.5-3,9.2-0.7
		c2.8,2.3,3.1,6.4,0.8,9.2c0,0,0,0,0,0c-6.3,7.5-9.9,11.8-12,14.3c-2.8,3.4-2.8,3.4-2.9,3.4l0,0c-2.8,2.7-6.5,4.2-10.3,4.2H35.5
		c-1.3,0-2.5,0.5-3.4,1.4l-1.7,1.6c0.6,1.8,0.2,3.7-1.2,5.1l-8,7.8C20.9,83.8,20.5,84,20.1,84z M11.8,56.7c-0.4,0-0.8,0.2-1.2,0.5
		L4,63.9l16.1,16.2l6.8-6.7c0.6-0.6,0.6-1.7,0-2.3c-5.9-5.8-9.2-9.2-11.3-11.2c-0.9-1-1.9-2-2.9-2.9l0,0
		C12.4,56.8,12.1,56.7,11.8,56.7L11.8,56.7z M31.2,46.4c-7,0-12.7,3.2-15.7,8.8L28.4,68l1.4-1.3c1.5-1.5,3.6-2.3,5.7-2.3h21.8
		c3,0,5.8-1.1,8-3.2l14.7-17.5c1.2-1.4,1-3.4-0.4-4.6c0,0,0,0,0,0c-1.4-1.2-3.5-1-4.6,0.4c0,0-0.5,0.5-2.8,2.9l0,0L71,43.4l0,0
		l-0.3,0.3l-6.5,6.6c0.5,3.6-2,6.9-5.6,7.3c-0.3,0-0.6,0.1-0.9,0.1H44.3c-0.9,0-1.6-0.7-1.6-1.6s0.7-1.6,1.6-1.6h13.4
		c1.8,0,3.3-1.5,3.3-3.3S59.5,48,57.7,48H39.1c-0.2,0-0.5,0-0.7-0.1C36.1,46.9,33.7,46.4,31.2,46.4z"/>
	<path id="Path-2" d="M47.4,8.6v1.9c-2.6,0.9-3.9,3.7-3,6.3c0.7,2,2.6,3.3,4.7,3.3c0.9,0,1.7,0.7,1.7,1.6c0,0.9-0.7,1.7-1.6,1.7
		c0,0-0.1,0-0.1,0c-0.9-0.1-1.6-0.5-2.1-1.2c-0.6-0.7-1.7-0.7-2.3-0.1c-0.6,0.6-0.7,1.5-0.2,2.2c0.8,1,1.8,1.7,3,2.1v1.9
		c0,0.9,0.7,1.6,1.7,1.6s1.7-0.7,1.7-1.6v-1.9c2.6-0.9,3.9-3.7,3-6.3c-0.7-2-2.6-3.3-4.7-3.3c-0.9,0-1.6-0.7-1.6-1.6
		c0-0.9,0.7-1.6,1.6-1.6c0.7,0,1.3,0.4,1.8,0.9c0.6,0.6,1.7,0.7,2.3,0c0.6-0.6,0.7-1.7,0-2.3c0,0,0,0-0.1,0
		c-0.7-0.7-1.5-1.2-2.4-1.5V8.6C50.7,7.7,50,7,49.1,7S47.4,7.7,47.4,8.6z"/>
</g>
</svg>
