<?xml version="1.0" encoding="utf-8"?>
<!-- Generator: Adobe Illustrator 23.0.0, SVG Export Plug-In . SVG Version: 6.00 Build 0)  -->
<svg version="1.1" id="shop" xmlns="http://www.w3.org/2000/svg" xmlns:xlink="http://www.w3.org/1999/xlink" x="0px" y="0px"
	 viewBox="0 0 68 68" style="enable-background:new 0 0 68 68;" xml:space="preserve">
<path id="Path" d="M55.5,57c-0.8,0-1.5,0.7-1.5,1.5s0.7,1.5,1.5,1.5s1.5-0.7,1.5-1.5S56.3,57,55.5,57z"/>
<path id="Shape" d="M63.2,68H4.8c-0.7,0-1.3-0.6-1.3-1.3V30.9c-2.1-1.1-3.4-3.3-3.5-5.7v-2.7c0-0.4,0-0.5,1.4-2.8l0,0l0,0l0,0l0,0
	l0,0l0,0l0,0l0,0c1.1-1.9,3.2-5.7,7.3-13.3V4c0-2.2,1.8-4,4-4h42.5c2.2,0,4,1.8,4,4v2.3c4,7.3,6.1,11.1,7.2,13.2l0,0.1l0,0l0,0l0,0
	l0,0l0,0c1.4,2.4,1.4,2.5,1.4,2.9v2.7c-0.1,2.4-1.4,4.5-3.5,5.7v35.8C64.5,67.4,64,68,63.2,68z M12.8,37.2h15.9
	c0.7,0,1.3,0.6,1.3,1.3v26.8h31.9V31.8c-0.3,0-0.6,0.1-0.9,0.1c-2.2,0-4.3-1-5.6-2.8c-1.3,1.7-3.2,2.7-5.4,2.8c-2.1,0-4.1-1-5.3-2.7
	c-2.2,2.9-6.4,3.5-9.3,1.3c-0.5-0.4-1-0.8-1.3-1.3c-2.2,2.9-6.4,3.5-9.3,1.3c-0.5-0.4-1-0.8-1.3-1.3c-1.2,1.7-3.2,2.7-5.3,2.7
	c-2.1,0-4.1-1-5.4-2.8c-0.2,0.3-0.5,0.6-0.8,0.9c-1.3,1.2-3.1,1.9-4.8,1.9c-0.3,0-0.6,0-0.9-0.1v33.5h5.3V38.5
	C11.4,37.8,12,37.2,12.8,37.2z M14.1,53.9v11.4h13.3V53.9H14.1z M14.1,39.8v11.4h13.3V39.8H14.1z M56.6,23.9v1.3
	c0.2,2.4,2.4,4.2,4.8,4c0.4,0,0.9-0.1,1.3-0.3c1.6-0.6,2.7-2,2.7-3.7v-1.3L56.6,23.9z M46,23.9v1.3c0,2.2,1.8,4,4,4c2.2,0,4-1.8,4-4
	l0,0v-1.3L46,23.9z M35.3,23.9v1.3c0,2.2,1.8,4,4,4s4-1.8,4-4v-1.3L35.3,23.9z M24.7,23.9v1.3c0,2.2,1.8,4,4,4s4-1.8,4-4l0,0v-1.3
	L24.7,23.9z M14.1,23.9v1.3c0,2.2,1.8,4,4,4c2.2,0,4-1.8,4-4v-1.3L14.1,23.9z M2.7,23.9v1.3c0.1,1.6,1.1,3,2.6,3.6
	c0.5,0.2,1.1,0.4,1.7,0.4c2.3,0,4.2-1.7,4.4-4v-1.3L2.7,23.9z M51.8,8l4.4,13.3h8.2L57.1,8H51.8z M43.5,8l2.2,13.3h7.7L49,8H43.5z
	 M35.3,8v13.3h7.7L40.8,8H35.3z M27.2,8l-2.2,13.3h7.7V8H27.2z M19,8l-4.4,13.3h7.7L24.5,8H19z M10.9,8L10.9,8L3.6,21.3h8.2L16.2,8
	C16.2,8,10.9,8,10.9,8z M12.8,2.7c-0.7,0-1.3,0.6-1.3,1.3v1.3h45.2V4c0-0.7-0.6-1.3-1.3-1.3H12.8z"/>
<path id="Shape-2" d="M57.7,54H36.3c-0.7,0-1.3-0.6-1.3-1.3c0-0.7,0.6-1.4,1.3-1.4h1.3v-13c0-0.7,0.6-1.3,1.3-1.3h16
	c0.7,0,1.3,0.6,1.3,1.3v13h1.3c0.7,0,1.3,0.6,1.3,1.4C59,53.4,58.4,54,57.7,54z M40.3,39.7v11.6h13.3V39.7H40.3z"/>
<path id="Path-2" d="M49.7,57H39.3c-0.8,0.1-1.4,0.7-1.3,1.5c-0.1,0.8,0.5,1.4,1.3,1.5h10.4c0.8-0.1,1.4-0.7,1.3-1.5
	C51.1,57.7,50.5,57.1,49.7,57z"/>
</svg>
