<?xml version="1.0" encoding="utf-8"?>
<!-- Generator: Adobe Illustrator 23.0.0, SVG Export Plug-In . SVG Version: 6.00 Build 0)  -->
<svg version="1.1" id="shopping-bag" xmlns="http://www.w3.org/2000/svg" xmlns:xlink="http://www.w3.org/1999/xlink" x="0px"
	 y="0px" viewBox="0 0 70 70" style="enable-background:new 0 0 70 70;" xml:space="preserve">
<path id="Path" d="M63.5,53c0.8,0,1.5-0.7,1.5-1.5S64.3,50,63.5,50S62,50.7,62,51.5S62.7,53,63.5,53z"/>
<path id="Path-2" d="M63.5,47c0.8,0,1.5-0.6,1.5-1.4V34.4c0-0.8-0.7-1.4-1.5-1.4c-0.8,0-1.5,0.6-1.5,1.4v11.2
	C62,46.4,62.7,47,63.5,47z"/>
<path id="Shape" d="M65.9,70H4.1c-0.8,0-1.4-0.6-1.4-1.4V50H1.4C0.6,50,0,49.4,0,48.7v-8.2c0-0.8,0.6-1.4,1.4-1.4c0,0,0,0,0,0h5.5
	c-0.9-1.2-1.4-2.6-1.4-4.1c0-3.8,3.1-6.8,6.9-6.8c3.2,0,6,2.3,6.7,5.5h0h0h0.1c0,0,0.1,0,0.1,0h0c0.3-1.6,1.3-3.1,2.6-4.1V15
	c0-0.8,0.6-1.4,1.4-1.4h10.4v-1.4C33.6,5.5,39.1,0,45.9,0s12.3,5.5,12.3,12.3v1.4h10.4c0.8,0,1.4,0.6,1.4,1.4c0,0,0,0,0,0v50.9
	C70,68.2,68.2,70,65.9,70z M35.5,61.8v5.5h30.4c0.8,0,1.4-0.6,1.4-1.4v-4.1H35.5z M26,50v17.2h6.8V50H26z M15,50v17.2h8.2V50H15z
	 M5.5,50v17.2h6.8V50H5.5z M35.5,50v9h31.7V16.4h-9v6.3h1.4c0.8,0,1.4,0.6,1.4,1.4c0,0.8-0.6,1.4-1.4,1.4h-5.5
	c-0.8,0-1.4-0.6-1.4-1.4c0-0.8,0.6-1.4,1.4-1.4h1.4v-6.3H36.4v6.3h1.4c0.8,0,1.4,0.6,1.4,1.4c0,0.8-0.6,1.4-1.4,1.4h-5.5
	c-0.8,0-1.4-0.6-1.4-1.4c0-0.8,0.6-1.4,1.4-1.4c0,0,0,0,0,0h1.4v-6.3h-9v11.9c3.7-0.8,7.3,1.6,8.1,5.3c0.1,0.5,0.1,0.9,0.1,1.4
	c0,1.5-0.5,2.9-1.4,4.1h5.5c0.8,0,1.4,0.6,1.4,1.4v8.2c0,0.8-0.6,1.4-1.4,1.4L35.5,50z M26,41.8v5.5h9.6v-5.5L26,41.8z M15,41.8v5.5
	h8.2v-5.5L15,41.8z M2.7,41.8v5.5h9.6v-5.5L2.7,41.8z M26,30.9c-0.5,0-0.9,0.1-1.4,0.2v5.2c0.6,0.8,1,1.7,1.2,2.7h0h0H26
	c2.3,0,4.1-1.8,4.1-4.1C30.1,32.7,28.2,30.9,26,30.9L26,30.9z M19.1,36.4L19.1,36.4c-1.7,0-3.2,1.1-3.8,2.7H23
	c-0.4-1.3-1.5-2.2-2.8-2.6L19.1,36.4L19.1,36.4z M12.3,30.9c-2.3,0-4.1,1.8-4.1,4.1s1.8,4.1,4.1,4.1c0,0,0,0,0,0h0.1h0h0
	c0.4-2.1,1.9-4,3.9-4.9C16,32.3,14.3,30.9,12.3,30.9z M45.9,2.7c-5.3,0-9.6,4.3-9.6,9.6v1.4h19.1v-1.4C55.5,7,51.2,2.7,45.9,2.7z"/>
</svg>
