<?xml version="1.0" encoding="utf-8"?>
<!-- Generator: Adobe Illustrator 23.0.0, SVG Export Plug-In . SVG Version: 6.00 Build 0)  -->
<svg version="1.1" id="stopwatch" xmlns="http://www.w3.org/2000/svg" xmlns:xlink="http://www.w3.org/1999/xlink" x="0px" y="0px"
	 viewBox="0 0 67 81" style="enable-background:new 0 0 67 81;" xml:space="preserve">
<path id="Shape" d="M33.5,81C15.1,81.1,0.1,66.2,0,47.8C0,40.2,2.6,32.9,7.4,27l-3.4-3.4c-1.9-1.8-1.9-4.8,0-6.7c0,0,0,0,0,0
	c1.9-1.9,4.9-1.9,6.8,0l3.7,3.6c3.8-2.6,8.2-4.5,12.8-5.3v-4.7h-3.2c-0.9,0-1.6-0.7-1.6-1.6V4.7c0-2.6,2.2-4.8,4.8-4.7h12.8
	c2.6,0,4.8,2.1,4.8,4.7v4.1c0,0.9-0.7,1.6-1.6,1.6c0,0,0,0,0,0h-3.2v4.7c4.6,0.9,8.9,2.7,12.8,5.3l3.7-3.6c1.9-1.9,4.9-1.9,6.8,0
	c1.9,1.8,1.9,4.8,0,6.7c0,0,0,0,0,0L59.6,27c4.8,5.9,7.4,13.2,7.4,20.8C66.9,66.2,51.9,81.1,33.5,81z M33.5,17.7
	c-1.5,0-3,0.1-4.5,0.3c-7,1.1-13.5,4.6-18.2,9.9c-4.9,5.5-7.5,12.5-7.5,19.8C3.3,64.5,16.9,78,33.7,77.9c16.6-0.1,30-13.5,30.1-30.1
	c0-7.3-2.7-14.4-7.5-19.8c-4.7-5.3-11.2-8.8-18.2-9.9C36.5,17.8,35,17.7,33.5,17.7z M59.7,18.6c-0.4,0-0.8,0.2-1.1,0.5l-3.4,3.3
	c0.8,0.7,1.6,1.4,2.3,2.2l3.3-3.3c0.6-0.6,0.6-1.6,0-2.2c0,0,0,0,0,0C60.5,18.8,60.1,18.6,59.7,18.6L59.7,18.6z M7.3,18.6
	c-0.4,0-0.8,0.2-1.1,0.5c-0.6,0.6-0.6,1.6,0,2.2c0,0,0,0,0,0l3.3,3.3c0.7-0.7,1.5-1.5,2.3-2.2l-3.4-3.3C8.1,18.8,7.7,18.6,7.3,18.6
	L7.3,18.6z M33.5,14.6c1.1,0,2.1,0.1,3.2,0.1v-4.3h-6.4v4.3C31.4,14.6,32.4,14.6,33.5,14.6z M27.1,3.2c-0.9,0-1.6,0.7-1.6,1.6v2.5
	h16V4.7c0-0.9-0.7-1.6-1.6-1.6c0,0,0,0,0,0L27.1,3.2z"/>
<path id="Shape-2" d="M34,53c-2.7,0.1-4.9-2-5-4.7c0-2,1.4-3.8,3.3-4.4V32.6c0-0.9,0.8-1.6,1.7-1.6c0.9,0,1.6,0.7,1.7,1.6v11.3
	c2,0.6,3.3,2.4,3.3,4.4C38.9,51,36.7,53.1,34,53z M34,46.7c-0.9,0-1.6,0.6-1.7,1.5c0,0.9,0.6,1.6,1.5,1.7c0.1,0,0.1,0,0.2,0
	c0.9,0,1.6-0.6,1.7-1.5c0-0.9-0.6-1.6-1.5-1.7C34.1,46.7,34.1,46.7,34,46.7z"/>
<path id="Path" d="M50.9,32.1C50.9,32,50.8,32,50.9,32.1c-0.1-0.1-0.1-0.1-0.2-0.2c-2.9-2.7-6.4-4.7-10.3-5.8
	c-0.9-0.3-1.7,0.2-2,1.1c-0.2,0.8,0.2,1.7,1.1,1.9c0,0,0,0,0,0c2.9,0.8,5.5,2.2,7.8,4.1l-1.1,1.1c-0.6,0.6-0.6,1.5-0.1,2.1
	c0,0,0,0,0.1,0.1c0.6,0.6,1.7,0.6,2.3,0l1.1-1.1c2.9,3.2,4.7,7.3,5.1,11.7h-1.6c-0.9,0-1.6,0.6-1.6,1.5s0.6,1.6,1.5,1.6
	c0.1,0,0.1,0,0.2,0h1.6c-0.4,4.3-2.1,8.4-5.1,11.7l-1.1-1.1c-0.6-0.6-1.7-0.6-2.3,0c-0.6,0.6-0.6,1.5-0.1,2.1c0,0,0,0,0.1,0.1
	l1.1,1.1c-3.5,2.8-7.7,4.5-12.2,4.8v-1.5c0-0.9-0.8-1.6-1.7-1.6c-0.8,0-1.5,0.7-1.6,1.6v1.5c-4.5-0.3-8.7-2-12.2-4.8l1.1-1.1
	c0.6-0.6,0.6-1.5,0.1-2.1c0,0,0,0-0.1-0.1c-0.6-0.6-1.7-0.6-2.3,0l-1.1,1.1c-2.9-3.2-4.7-7.3-5.1-11.7h1.6c0.9,0,1.6-0.6,1.6-1.5
	c0-0.9-0.6-1.6-1.5-1.6c-0.1,0-0.1,0-0.2,0h-1.6c0.4-4.3,2.1-8.4,5.1-11.7l1.1,1.1c0.6,0.6,1.7,0.6,2.3,0c0.6-0.6,0.6-1.5,0.1-2.1
	c0,0,0,0-0.1-0.1l-1.1-1.1c2.3-1.9,4.9-3.3,7.8-4.1c0.8-0.2,1.3-1.1,1.1-1.9c0,0,0,0,0,0c-0.3-0.8-1.2-1.3-2-1.1
	c-3.8,1.1-7.4,3.1-10.3,5.8c0,0-0.1,0.1-0.1,0.1c0,0-0.1,0.1-0.1,0.1C7,40.7,6.6,55,15.2,64.2c0.3,0.3,0.6,0.6,0.9,0.9
	c0,0,0.1,0.1,0.1,0.1s0.1,0.1,0.1,0.1c4.7,4.4,10.8,6.8,17.2,6.8c6.4,0,12.6-2.4,17.2-6.8c0,0,0.1,0,0.1-0.1s0.1-0.1,0.1-0.1
	c9.1-8.6,9.5-23,0.9-32.1C51.5,32.7,51.2,32.4,50.9,32.1L50.9,32.1z"/>
<path id="Path-2" d="M34,28c1.1,0,2-0.9,2-2c0-1.1-0.9-2-2-2s-2,0.9-2,2C32,27.1,32.9,28,34,28z"/>
</svg>
