<?xml version="1.0" encoding="utf-8"?>
<!-- Generator: Adobe Illustrator 23.0.0, SVG Export Plug-In . SVG Version: 6.00 Build 0)  -->
<svg version="1.1" id="tag" xmlns="http://www.w3.org/2000/svg" xmlns:xlink="http://www.w3.org/1999/xlink" x="0px" y="0px"
	 viewBox="0 0 70 69" style="enable-background:new 0 0 70 69;" xml:space="preserve">
<path id="Path" d="M23.7,27.7c0.4-0.4,0.4-1,0-1.4s-1-0.4-1.4,0s-0.4,1,0,1.4c0,0,0,0,0,0C22.7,28.1,23.3,28.1,23.7,27.7z"/>
<path id="Shape" d="M35.5,30c-1.9,0-3.5-1.6-3.5-3.5c0-0.9,0.4-1.8,1-2.5c1.4-1.4,3.6-1.4,5,0c1.4,1.4,1.4,3.6,0,5l0,0
	C37.3,29.6,36.4,30,35.5,30z M35.5,25.3c-0.6,0-1.2,0.5-1.2,1.2s0.5,1.2,1.2,1.2c0.6,0,1.2-0.5,1.2-1.2c0-0.3-0.1-0.6-0.3-0.8
	C36.1,25.5,35.8,25.3,35.5,25.3z"/>
<path id="Shape-2" d="M35.5,46L35.5,46c-1.9,0-3.5-1.6-3.5-3.5c0-0.9,0.4-1.8,1-2.5c1.4-1.4,3.6-1.3,4.9,0c1.3,1.4,1.3,3.5,0,4.9
	C37.3,45.6,36.4,46,35.5,46z M35.5,41.3c-0.6,0-1.2,0.5-1.2,1.2c0,0.6,0.5,1.2,1.2,1.2s1.2-0.5,1.2-1.2c0-0.3-0.1-0.6-0.3-0.8
	C36.1,41.5,35.8,41.3,35.5,41.3z"/>
<path id="Path-2" d="M24,37.8c0.1,0.7,0.8,1.3,1.6,1.1c0,0,0,0,0,0l19.3-4.1c0.8-0.2,1.2-0.9,1.1-1.7c-0.1-0.7-0.8-1.3-1.6-1.1
	c0,0,0,0,0,0l-19.3,4.1C24.3,36.3,23.9,37.1,24,37.8z"/>
<path id="Path-3" d="M42.6,8c-0.4,0-0.7,0.1-1,0.4L27.4,22.6c-0.5,0.5-0.5,1.4,0,1.9s1.4,0.5,1.9,0c0,0,0,0,0,0l13.2-13.2l17.2,17.2
	L29.4,58.7L12.3,41.6l9.5-9.5c0.5-0.5,0.5-1.4,0-1.9c-0.5-0.5-1.4-0.5-1.9,0l0,0L9.4,40.6c-0.5,0.5-0.5,1.4,0,1.9c0,0,0,0,0,0
	l19.1,19.1c0.5,0.5,1.4,0.5,1.9,0c0,0,0,0,0,0l32.2-32.2c0.5-0.5,0.5-1.4,0-1.9L43.5,8.4C43.3,8.1,42.9,8,42.6,8z"/>
<path id="Shape-3" d="M27.3,69c-1.1,0-2.1-0.4-2.9-1.2L19,62.5c-1,0.4-2.1,0.5-3.2,0.5c-2.6,0-5-1-6.9-2.8c-2.6-2.6-3.5-6.4-2.3-9.9
	l-5.4-5.3c-1.6-1.5-1.6-4.1-0.1-5.7c0,0,0,0,0.1-0.1l38.4-38c1.6-1.6,4.2-1.6,5.8,0l0,0l4.8,4.9c1.6-1.2,3.6-1.8,5.7-1.8
	c2.1,0,4.2,0.7,5.9,1.9l5.9-5.8c0.5-0.5,1.4-0.5,1.9,0c0.5,0.5,0.5,1.4,0,1.9c0,0,0,0,0,0l-5.9,5.8c1.3,1.6,2,3.6,2,5.7
	c0,2-0.6,4-1.9,5.7l4.9,4.7l0,0l0,0c1.6,1.5,1.6,4.1,0.1,5.7c0,0,0,0-0.1,0.1L30.2,67.8C29.4,68.6,28.4,69,27.3,69z M19.3,59.5
	c0.4,0,0.7,0.1,1,0.4l6.1,6c0.5,0.5,1.4,0.5,1.9,0L66.9,28c0.5-0.5,0.5-1.4,0-1.9c0,0,0,0,0,0L61,20.5c-0.5-0.5-0.5-1.4,0-1.9
	c0,0,0,0,0,0c2.3-2.3,2.6-5.9,0.8-8.6l-2,2c0.7,1.5,0.4,3.4-0.8,4.6c-1.6,1.6-4.2,1.6-5.8,0c-1.6-1.5-1.6-4.1-0.1-5.7
	c0,0,0,0,0.1-0.1c0.8-0.8,1.8-1.2,2.9-1.2c0.6,0,1.2,0.1,1.8,0.4l2-2c-1.2-0.8-2.5-1.2-3.9-1.2c-1.8,0-3.5,0.7-4.8,1.9
	c-0.3,0.3-0.6,0.4-1,0.4c-0.4,0-0.7-0.1-1-0.4l-5.7-5.8c-0.5-0.5-1.4-0.5-1.9,0l-38.4,38c-0.5,0.5-0.5,1.4,0,1.9c0,0,0,0,0,0l6.1,6
	c0.4,0.4,0.5,1,0.3,1.5c-1.2,2.6-0.7,5.7,1.4,7.7c1.3,1.3,3.1,2,4.9,2c1,0,2-0.2,2.9-0.6C18.9,59.6,19.1,59.5,19.3,59.5L19.3,59.5z
	 M56.1,12.4c-0.4,0-0.7,0.1-1,0.4c-0.5,0.5-0.5,1.4,0,1.9c0,0,0,0,0,0c0.5,0.5,1.4,0.5,1.9,0c0.5-0.5,0.5-1.4,0-1.9c0,0,0,0,0,0
	C56.8,12.5,56.4,12.4,56.1,12.4z"/>
</svg>
