<?xml version="1.0" encoding="utf-8"?>
<!-- Generator: Adobe Illustrator 23.0.0, SVG Export Plug-In . SVG Version: 6.00 Build 0)  -->
<svg version="1.1" id="Слой_1" xmlns="http://www.w3.org/2000/svg" xmlns:xlink="http://www.w3.org/1999/xlink" x="0px" y="0px"
	 viewBox="0 0 64 64" style="enable-background:new 0 0 64 64;" xml:space="preserve">
<g id="tag" transform="translate(63.999 64) rotate(-180)">
	<path id="Path" d="M23.6,25.6c0.6-0.6,0.6-1.5,0-2.1c-0.6-0.6-1.5-0.6-2.1,0c-0.6,0.6-0.6,1.5,0,2.1c0,0,0,0,0,0
		C22,26.1,23,26.1,23.6,25.6z"/>
	<path id="Shape" d="M31.5,28c-1.9,0-3.5-1.6-3.5-3.5c0-0.9,0.4-1.8,1-2.5c1.4-1.4,3.6-1.4,5,0c1.4,1.4,1.4,3.6,0,5l0,0
		C33.3,27.6,32.4,28,31.5,28z M31.5,23.3c-0.6,0-1.2,0.5-1.2,1.2s0.5,1.2,1.2,1.2c0.6,0,1.2-0.5,1.2-1.2c0-0.3-0.1-0.6-0.3-0.8
		C32.1,23.5,31.8,23.3,31.5,23.3z"/>
	<path id="Shape-2" d="M31.5,43L31.5,43c-1.9,0-3.5-1.6-3.5-3.5c0-0.9,0.4-1.8,1-2.5c1.4-1.4,3.6-1.3,4.9,0c1.3,1.4,1.3,3.5,0,4.9
		C33.3,42.6,32.4,43,31.5,43z M31.5,38.3c-0.6,0-1.2,0.5-1.2,1.2c0,0.6,0.5,1.2,1.2,1.2c0.6,0,1.2-0.5,1.2-1.2
		c0-0.3-0.1-0.6-0.3-0.8C32.1,38.5,31.8,38.3,31.5,38.3z"/>
	<path id="Path-2" d="M21,34c0.2,0.7,0.8,1.1,1.5,1L41,31.5c0.7-0.1,1.1-0.8,1-1.4c0,0,0,0,0,0c-0.2-0.7-0.8-1.1-1.5-1L22,32.5
		C21.4,32.7,20.9,33.3,21,34C21,34,21,34,21,34z"/>
	<path id="Path-3" d="M37.5,7c-0.3,0-0.6,0.1-0.9,0.4L23.7,20.2c-0.5,0.5-0.5,1.3,0,1.7c0.5,0.5,1.2,0.5,1.7,0l12-12L53,25.5
		L25.5,53L10,37.5l8.6-8.6c0.5-0.5,0.5-1.3,0-1.7c-0.5-0.5-1.3-0.5-1.7,0l0,0l-9.4,9.4c-0.5,0.5-0.5,1.3,0,1.7c0,0,0,0,0,0
		l17.3,17.3c0.5,0.5,1.3,0.5,1.7,0c0,0,0,0,0,0l29.2-29.2c0.5-0.5,0.5-1.3,0-1.7L38.3,7.4C38.1,7.1,37.8,7,37.5,7z"/>
	<path id="Shape-3" d="M25,64c-1,0-2-0.4-2.7-1.1l-5-5c-0.9,0.3-1.9,0.5-2.9,0.5c-4.9,0-8.9-4-8.9-8.9c0-1,0.2-2,0.5-2.9l-5-5
		c-1.5-1.5-1.5-3.8,0-5.3L36.2,1.1c1.5-1.5,3.8-1.5,5.3,0l0,0l4.4,4.5c1.5-1.1,3.3-1.7,5.2-1.7c1.9,0,3.8,0.6,5.4,1.8l5.4-5.4
		c0.5-0.5,1.3-0.5,1.8,0c0.5,0.5,0.5,1.3,0,1.8l0,0l-5.4,5.4c2.4,3.1,2.4,7.4,0.1,10.6l4.5,4.4l0,0l0,0c1.5,1.5,1.5,3.8,0,5.3
		L27.6,62.9C26.9,63.6,26,64,25,64z M17.7,55.2c0.3,0,0.6,0.1,0.9,0.4l5.5,5.5c0.5,0.5,1.3,0.5,1.8,0L61.1,26c0.5-0.5,0.5-1.3,0-1.8
		L55.8,19c-0.5-0.5-0.5-1.3,0-1.8c0,0,0,0,0,0c2.1-2.1,2.4-5.5,0.7-8l-1.8,1.8c0.9,1.9,0.1,4.1-1.8,5c-1.9,0.9-4.1,0.1-5-1.8
		c-0.7-1.4-0.4-3.1,0.7-4.3C49.3,9.4,50.3,9,51.3,9c0.6,0,1.1,0.1,1.6,0.4l1.8-1.8c-1.1-0.7-2.3-1.1-3.6-1.1c-1.6,0-3.2,0.6-4.4,1.8
		c-0.2,0.2-0.5,0.4-0.9,0.4c-0.3,0-0.7-0.1-0.9-0.4l-5.2-5.4c-0.5-0.5-1.3-0.5-1.8,0L2.9,38.1c-0.5,0.5-0.5,1.3,0,1.8l5.5,5.5
		c0.4,0.4,0.5,0.9,0.2,1.4c-1.1,2.4-0.6,5.3,1.3,7.2c1.2,1.2,2.8,1.9,4.5,1.9c0.9,0,1.8-0.2,2.7-0.6C17.3,55.3,17.5,55.2,17.7,55.2z
		 M51.3,11.5c-0.7,0-1.2,0.6-1.2,1.3c0,0.7,0.6,1.2,1.3,1.2c0.7,0,1.2-0.6,1.2-1.3c0-0.3-0.1-0.6-0.4-0.9
		C51.9,11.6,51.6,11.5,51.3,11.5z"/>
</g>
</svg>
