<?xml version="1.0" encoding="utf-8"?>
<!-- Generator: Adobe Illustrator 23.0.0, SVG Export Plug-In . SVG Version: 6.00 Build 0)  -->
<svg version="1.1" id="wallet" xmlns="http://www.w3.org/2000/svg" xmlns:xlink="http://www.w3.org/1999/xlink" x="0px" y="0px"
	 viewBox="0 0 74 74" style="enable-background:new 0 0 74 74;" xml:space="preserve">
<path id="Path" d="M48.5,49c-0.8,0-1.5,0.7-1.5,1.5s0.7,1.5,1.5,1.5s1.5-0.7,1.5-1.5S49.3,49,48.5,49z"/>
<path id="Path-2" d="M28.5,47.6c-0.8,0-1.5-0.6-1.5-1.4c0-0.8,0.6-1.5,1.4-1.5c0,0,0.1,0,0.1,0c0.6,0,1.2,0.3,1.6,0.7
	c0.6,0.5,1.5,0.5,2.1,0c0.5-0.5,0.6-1.4,0-2c0,0,0,0-0.1-0.1c-0.6-0.6-1.4-1-2.2-1.3v-1.7c0-0.8-0.7-1.4-1.5-1.4
	c-0.8,0-1.5,0.6-1.5,1.4c0,0,0,0,0,0v1.7c-1.8,0.6-2.9,2.2-3,4c0,2.4,2,4.3,4.5,4.3c0.8,0,1.5,0.6,1.5,1.4s-0.6,1.5-1.4,1.5
	c0,0-0.1,0-0.1,0c-0.8-0.1-1.5-0.5-1.9-1.1c-0.5-0.6-1.5-0.7-2.1-0.2c-0.6,0.5-0.7,1.4-0.2,2c0,0,0,0,0,0.1c0.7,0.9,1.7,1.5,2.7,1.9
	v1.7c0,0.8,0.7,1.4,1.5,1.4c0,0,0,0,0,0c0.8,0,1.5-0.6,1.5-1.4v-1.7c1.8-0.6,2.9-2.2,3-4C33,49.4,31,47.5,28.5,47.6z"/>
<path id="Path-3" d="M17.5,24c0.8,0,1.5-0.7,1.5-1.5v-6c0-0.8-0.7-1.5-1.5-1.5S16,15.7,16,16.5v6C16,23.3,16.7,24,17.5,24z"/>
<path id="Shape" d="M51.5,74H7.2c-4,0-7.2-3.2-7.2-7.2V22.5c0-4,3.2-7.2,7.2-7.2h1.4v-1.4c0-2.4,1.9-4.3,4.3-4.3h4.3V4.3
	c0-2.4,1.9-4.3,4.3-4.3h26.9c2.4,0,4.3,1.9,4.3,4.3v11H61c4,0,7.2,3.2,7.2,7.2v11.6c3.2,0,5.8,2.6,5.8,5.8v13c0,2.4-1.9,4.3-4.3,4.3
	h-1.4V61c0,4-3.2,7.2-7.2,7.2h-2.5C57.8,71.6,54.9,74,51.5,74z M2.9,28.2v38.5c0,2.4,1.9,4.3,4.3,4.3h44.2c2.4,0,4.3-1.9,4.3-4.3
	v-9.5H45.7c-2.4,0-4.3-1.9-4.3-4.3v-5.8c0-2.4,1.9-4.3,4.3-4.3h10.1v-8.7c0-2.4-1.9-4.3-4.3-4.3H7.5C5.9,29.8,4.2,29.2,2.9,28.2z
	 M58.7,57.2v8.1H61c2.4,0,4.3-1.9,4.3-4.3v-3.8L58.7,57.2z M45.7,45.7c-0.8,0-1.4,0.6-1.4,1.4v5.8c0,0.8,0.6,1.4,1.4,1.4h24
	c0.8,0,1.4-0.6,1.4-1.4v-8c-0.9,0.5-1.9,0.8-2.9,0.8L45.7,45.7z M68.2,37v5.8c1.6,0,2.9-1.3,2.9-2.9C71.1,38.3,69.8,37,68.2,37z
	 M52.9,18.2V27c3.4,0.7,5.8,3.6,5.8,7.1v8.7h6.6V22.5c0-2.4-1.9-4.3-4.3-4.3H52.9z M21.7,2.9c-0.8,0-1.4,0.6-1.4,1.4v5.2H39
	c2.4,0,4.3,1.9,4.3,4.3v13H50V4.3c0-0.8-0.6-1.4-1.4-1.4L21.7,2.9z M34.7,12.4v14.5h5.8v-13c0-0.8-0.6-1.4-1.4-1.4H34.7z M26,12.4
	v14.5h5.8V12.4H26z M13,12.4c-0.8,0-1.4,0.6-1.4,1.4v13h11.6V12.4H13z M7.2,18.2c-2.4,0-4.3,1.9-4.3,4.3C3,25,5,27,7.5,26.9
	c0,0,0,0,0.1,0h1.1v-8.7H7.2z"/>
<path id="Path-4" d="M60.5,49h-7c-0.8,0-1.5,0.7-1.5,1.5s0.7,1.5,1.5,1.5h7c0.8,0,1.5-0.7,1.5-1.5S61.3,49,60.5,49z"/>
</svg>
